<svg width="25" height="25" viewBox="0 0 25 25" fill="none" xmlns="http://www.w3.org/2000/svg">
<path fill-rule="evenodd" clip-rule="evenodd" d="M0 12.5C0 5.59644 5.59644 0 12.5 0C19.4036 0 25 5.59644 25 12.5C25 19.4036 19.4036 25 12.5 25C5.59644 25 0 19.4036 0 12.5ZM18.888 9.41313C18.7347 8.82407 18.2829 8.3602 17.7092 8.20278C16.6695 7.91667 12.5 7.91667 12.5 7.91667C12.5 7.91667 8.33053 7.91667 7.29076 8.20278C6.71705 8.3602 6.26523 8.82407 6.11189 9.41313C5.83333 10.4807 5.83333 12.7083 5.83333 12.7083C5.83333 12.7083 5.83333 14.9358 6.11189 16.0035C6.26523 16.5926 6.71705 17.0565 7.29076 17.214C8.33053 17.5 12.5 17.5 12.5 17.5C12.5 17.5 16.6695 17.5 17.7092 17.214C18.2829 17.0565 18.7347 16.5926 18.888 16.0035C19.1667 14.9358 19.1667 12.7083 19.1667 12.7083C19.1667 12.7083 19.1667 10.4807 18.888 9.41313Z" fill="#4F4F4F"/>
<path fill-rule="evenodd" clip-rule="evenodd" d="M11.25 15.0002V10.8335L14.5833 12.9169L11.25 15.0002Z" fill="#4F4F4F"/>
</svg>
